<svg width="16" height="16" viewBox="0 0 16 16" fill="none" xmlns="http://www.w3.org/2000/svg">
<rect x="-0.000976562" width="16" height="16" rx="3" fill="#F04142"/>
<path d="M12.344 10.35C12.542 10.35 12.696 10.251 12.828 10.064C13.015 9.778 13.136 9.151 13.191 8.183L12.322 7.754C12.322 8.106 12.3 8.436 12.267 8.733C12.223 9.041 12.168 9.206 12.113 9.206C12.069 9.206 12.014 9.107 11.948 8.909C11.794 8.469 11.728 7.677 11.728 6.522V4.278H9.48402V2.958H8.36202V4.278H7.24002V5.4H8.36202C8.34002 5.873 8.29602 6.324 8.21902 6.742C8.01002 6.61 7.79002 6.478 7.57002 6.346L6.96502 7.248C7.27302 7.424 7.58102 7.622 7.88902 7.853C7.57002 8.612 7.09702 9.228 6.45902 9.701L7.30602 10.46C7.94402 9.965 8.45002 9.338 8.81302 8.579C9.16502 8.876 9.51702 9.217 9.86902 9.591L10.518 8.601C10.1 8.183 9.67102 7.809 9.22002 7.457C9.37402 6.841 9.46202 6.148 9.48402 5.4H10.606V6.522C10.606 8.216 10.848 9.338 11.321 9.866C11.585 10.174 11.926 10.339 12.344 10.35ZM3.13702 4.223V5.345H4.56702V6.94C4.00602 7.061 3.43402 7.16 2.85102 7.237L3.12602 8.304C3.61002 8.216 4.08302 8.117 4.56702 8.018V8.953C4.56702 9.206 4.45702 9.338 4.25902 9.338C3.97302 9.338 3.66502 9.305 3.34602 9.261L3.61002 10.361H4.66602C5.37002 10.361 5.72202 9.987 5.72202 9.239V7.743C6.09602 7.644 6.47002 7.545 6.84402 7.435V6.335L5.72202 6.665V5.345H6.93202V4.223H5.72202V2.969H4.56702V4.223H3.13702ZM4.22602 10.592C3.85202 11.351 3.40102 12 2.89502 12.539L3.84102 13.232C4.34702 12.627 4.79802 11.901 5.18302 11.054L4.22602 10.592ZM6.98702 10.911L5.90902 11.131C6.10702 11.725 6.28302 12.407 6.41502 13.188L7.57002 12.913C7.39402 12.198 7.20702 11.527 6.98702 10.911ZM9.26402 10.757L8.18602 10.988C8.49402 11.615 8.74702 12.341 8.94502 13.166L10.089 12.891C9.84702 12.121 9.57202 11.417 9.26402 10.757ZM11.354 10.405L10.419 10.988C11.046 11.802 11.541 12.539 11.904 13.199L12.861 12.528C12.509 11.923 12.014 11.219 11.354 10.405Z" fill="white"/>
</svg>
